<svg id="Capa_1" style="fill:white;" enable-background="new 0 0 512 512" height="512" viewBox="0 0 512 512" width="512" xmlns="http://www.w3.org/2000/svg"><g><path d="m512 .261h-474.266v209.745c0 34.467 6.505 68.381 19.3 100.863-2.559 14.268 1.653 29.523 12.656 40.527l12.153 12.153-60.052 46.683c-13.875 10.787-22.019 27.718-21.786 45.292.404 30.234 24.393 54.673 54.61 55.635l.702.022c.594.019 1.188.028 1.781.028 17.334 0 33.883-8.06 44.557-21.79l46.388-59.671 107.726 81.99 89.139-63.259c39.928-28.336 72.766-64.943 94.964-105.863 22.298-41.105 34.084-86.961 34.084-132.611v-70.501l38.044-34.542zm-455.725 480.977-.702-.022c-14.171-.452-25.421-11.912-25.61-26.09-.11-8.241 3.709-16.181 10.216-21.239l17.209-13.378 33.696 33.696-13.083 16.829c-5.176 6.657-13.31 10.474-21.726 10.204zm53.34-50.872-28.389-28.389 21.967-17.077 23.499 23.499zm-41.921-399.623h309.911l-31.18 34.607h-241.433v144.656c0 26.593 4.176 48.079 9.84 65.016-4.096-1.182-8.38-1.803-12.76-1.803-8.637 0-16.902 2.384-24.063 6.824-6.853-22.824-10.316-46.292-10.316-70.037v-179.263zm82.774 252.101c-9.975-19.538-15.516-45.09-15.516-72.838v-114.696h105.913v87.202zm120.357-187.534h48.607l-48.607 53.949zm-179.951 234.902c-6.173-6.174-6.174-16.221 0-22.395 4.709-4.709 14.698-7.697 22.395 0l90.924 90.924c6.173 6.174 6.173 16.221 0 22.395-6.174 6.172-16.22 6.174-22.395 0zm179.951-6.267 110.709-100.522c-1.36 25.127-10.589 53.325-27.53 83.953-9.769 17.663-30.054 44.732-71.217 73.381l-11.962 8.327zm-29.96 67.104c-10.979-7.045-21.958-19.964-21.958-19.964l21.958-19.937zm203.131-181.043c0 40.676-10.533 81.592-30.459 118.325-20.026 36.917-49.754 70.016-85.968 95.716l-71.648 50.846-37.352-26.971c2.401-1.618 4.686-3.48 6.809-5.602 5.354-5.354 9.09-11.718 11.233-18.481 5.993 3.648 10.732 6.329 11.901 6.985l8.186 4.595 43.205-30.072c25.331-17.631 59.829-46.424 80.318-83.47 20.881-37.753 31.469-73.039 31.469-104.879v-20.956l32.305-29.333v43.297zm38.044-118.308-284.342 258.179-35.402-35.402 255.636-283.732h64.108z"/></g></svg>
