<?xml version="1.0" encoding="iso-8859-1"?>
<!-- Generator: Adobe Illustrator 19.0.0, SVG Export Plug-In . SVG Version: 6.00 Build 0)  -->
<svg version="1.1" id="Capa_1" xmlns="http://www.w3.org/2000/svg" xmlns:xlink="http://www.w3.org/1999/xlink" x="0px" y="0px"
	 viewBox="0 0 512 512" style="enable-background:new 0 0 512 512;" xml:space="preserve">
<circle style="fill:#1F2833;" cx="256" cy="267" r="245"/>
<path style="fill:#7f8286;" d="M273.5,361.794v-53.615c-2.065,0.506-4.222,0.779-6.443,0.779h-22.114
	c-2.221,0-4.378-0.273-6.443-0.779v53.615H273.5z"/>
<path style="fill:#7f8286;" d="M254,361.794v-52.836h-9.057c-2.221,0-4.378-0.273-6.443-0.779v53.615H254z"/>
<path style="fill:#d1d6da;" d="M256,285.003c-13.403,0-26.239-2.468-38.086-6.961v4.93c0,14.927,12.101,27.028,27.029,27.028h22.114
	c14.928,0,27.029-12.101,27.029-27.028v-4.93C282.238,282.535,269.403,285.003,256,285.003z"/>
<path style="fill:#7f8286;" d="M248.894,284.763c-10.838-0.71-21.243-3.028-30.979-6.721v4.93c0,14.927,12.101,27.028,27.029,27.028
	h22.114c1.499,0,2.968-0.127,4.4-0.362C259.199,307.63,249.72,297.379,248.894,284.763z"/>
<path style="fill:#C5C6C7;" d="M295,382v-17c0-2.75-2.25-5-5-5h-68c-2.75,0-5,2.25-5,5v17H295z"/>
<path style="fill:#979b9f;" d="M247,382v-17c0-2.75,2.25-5,5-5h-30c-2.75,0-5,2.25-5,5v17H247z"/>
<path style="fill:#0f0f0f;" d="M350.5,467v-82c0-2.75-2.25-5-5-5h-179c-2.75,0-5,2.25-5,5v82H350.5z"/>
<path style="fill:#0f0f0f;" d="M177,467v-82c0-2.75,2.25-5,5-5h-15.5c-2.75,0-5,2.25-5,5v82H177z"/>
<path style="fill:#66FCF1;" d="M323.022,445c0,2.75-2.25,5-5,5H193.978c-2.75,0-5-2.25-5-5v-42c0-2.75,2.25-5,5-5h124.044
	c2.75,0,5,2.25,5,5V445z"/>
<path style="fill:#5de2d8;" d="M208.955,445v-42c0-2.75,2.25-5,5-5h-19.977c-2.75,0-5,2.25-5,5v42c0,2.75,2.25,5,5,5h19.977
	C211.205,450,208.955,447.75,208.955,445z"/>
<path style="fill:#0f0f0f;" d="M371.5,466h-231c-2.75,0-5,2.25-5,5v9.352C171.082,500.491,212.195,512,256,512
	s84.918-11.509,120.5-31.649V471C376.5,468.25,374.25,466,371.5,466z"/>
0f0f0f	V471z"/>
<path style="fill:#d1d6da;" d="M424.255,25.591H385.5V34c0,2.206-1.794,4-4,4h-16.781c-0.553,0-1,0.448-1,1v11.591h52.42
	c-2.141,43.803-21.944,83.041-52.42,110.732v15.962c0,5.808-0.469,11.508-1.358,17.069c47.723-33.563,78.971-89.041,78.971-151.686
	C441.332,33.251,433.671,25.591,424.255,25.591z"/>
<path style="fill:#d1d6da;" d="M148.282,177.285v-15.962c-30.475-27.691-50.28-66.929-52.42-110.732h52.42V39c0-0.552-0.448-1-1-1
	H130.5c-2.206,0-4-1.794-4-4v-8.409H87.745c-9.416,0-17.077,7.661-17.077,17.077c0,62.646,31.249,118.124,78.971,151.687
	C148.75,188.793,148.282,183.093,148.282,177.285z"/>
<path style="fill:#C5C6C7;" d="M147.282,38v139.285c0,60.043,48.675,108.718,108.718,108.718s108.719-48.675,108.719-108.718V38
	H147.282z"/>
<g>
	<path style="fill:#979b9f;" d="M169,177.285V37.003h-21.718v140.282c0,60.043,48.675,108.718,108.718,108.718
		c3.641,0,7.234-0.193,10.782-0.545C211.874,279.973,169,233.636,169,177.285z"/>
</g>
<path style="fill:#d1d6da;" d="M386.5,34c0,2.75-2.25,5-5,5h-251c-2.75,0-5-2.25-5-5V5c0-2.75,2.25-5,5-5h251c2.75,0,5,2.25,5,5V34z
	"/>
<path style="fill:#C5C6C7;" d="M156,34V5c0-2.75,2.25-5,5-5h-30.5c-2.75,0-5,2.25-5,5v29c0,2.75,2.25,5,5,5H161
	C158.25,39,156,36.75,156,34z"/>
<g>
	<text style="fill:#0f0f0f; font-size:48px; font-weight: 600" x="232" y="440">FF</text>
</g>
<g>
</g>
<g>
</g>
<g>
</g>
<g>
</g>
<g>
</g>
<g>
</g>
<g>
</g>
<g>
</g>
<g>
</g>
<g>
</g>
<g>
</g>
<g>
</g>
<g>
</g>
<g>
</g>
<g>
</g>
</svg>
